<?xml version="1.0" ?><!DOCTYPE svg  PUBLIC '-//W3C//DTD SVG 1.1//EN'  'http://www.w3.org/Graphics/SVG/1.1/DTD/svg11.dtd'><svg height="100%" style="shape-rendering:geometricPrecision; text-rendering:geometricPrecision; image-rendering:optimizeQuality; fill-rule:evenodd; clip-rule:evenodd" viewBox="0 0 2.54 2.54" width="100%" xml:space="preserve" xmlns="http://www.w3.org/2000/svg" xmlns:xlink="http://www.w3.org/1999/xlink"><defs><style type="text/css">
   <![CDATA[
    .fil0 {fill:#FFBB33}
    .fil1 {fill:white}
   ]]>
  </style></defs><g id="图层_x0020_1"><path class="fil0" d="M0.37253 0l1.79494 0c0.20518,0 0.37253,0.16735 0.37253,0.37253l0 1.79494c0,0.20518 -0.16735,0.37253 -0.37253,0.37253l-1.79494 0c-0.20518,0 -0.37253,-0.16735 -0.37253,-0.37253l0 -1.79494c0,-0.20518 0.16735,-0.37253 0.37253,-0.37253z"/><g id="_493084216"><path class="fil1" d="M1.14116 1.69068l-0.03384 -1.1941c-0.00106,-0.03729 0.03077,-0.06773 0.06773,-0.06773l0.1899 0c0.03696,0 0.06878,0.03078 0.06773,0.06773l-0.03384 1.1941c-0.00105,0.03699 -0.03043,0.06773 -0.06773,0.06773l-0.12222 0c-0.0373,0 -0.06667,-0.03044 -0.06773,-0.06773z" id="_493048552"/><circle class="fil1" cx="1.26938" cy="1.98415" id="_493049368" r="0.127"/></g></g></svg>